<svg id="dry" xmlns="http://www.w3.org/2000/svg" width="51.55" height="39.195" viewBox="0 0 51.55 39.195">
  <path id="Path_34" data-name="Path 34" d="M1.89,18.762A5.155,5.155,0,0,0,7.3,24.175a5.413,5.413,0,0,0,0-10.813,5.155,5.155,0,0,0-5.413,5.4Zm2.835,0A2.578,2.578,0,1,1,7.3,21.34a2.407,2.407,0,0,1-2.575-2.577Z" transform="translate(2.971 15.014)" fill="#000025"/>
  <path id="Path_35" data-name="Path 35" d="M13.8,18.767a5.413,5.413,0,1,0,5.413-5.413A5.284,5.284,0,0,0,13.8,18.767Zm2.835,0a2.578,2.578,0,1,1,2.578,2.577,2.407,2.407,0,0,1-2.565-2.577Z" transform="translate(21.769 15.009)" fill="#000025"/>
  <path id="Path_36" data-name="Path 36" d="M0,20.152V36.39H3.351v-.773a6.774,6.774,0,0,1,6.959-6.959h.516a6.307,6.307,0,0,1,5.155,3.093,7.178,7.178,0,0,1,1.289,4.124v1.031H33.508V35.617A7.183,7.183,0,0,1,40.725,28.4,7.274,7.274,0,0,1,48.2,35.617v.773H51.55V2.349H16.238v7.733H10.052Zm5.413.258,6.7-6.209H16.5v7.753H5.413Z" transform="translate(0 -2.349)" fill="#000025"/>
  <path id="Path_37" data-name="Path 37" d="M26.265,12.152H24.87l.629-.629a.425.425,0,0,0,0-.6.43.43,0,0,0-.6,0l-1.2,1.2H21.656l.9-.982a.428.428,0,0,0-.028-.6.487.487,0,0,0-.258-.111h-1.2l1.338-1.338H24.1a.4.4,0,0,0,.41-.41.42.42,0,0,0-.41-.407h-.848l.985-.985a.425.425,0,1,0-.6-.6L22.628,7.7V6.827a.4.4,0,0,0-.41-.41.42.42,0,0,0-.41.41V8.546L20.416,9.941l-.028-1.289h0a.348.348,0,0,0-.108-.273.425.425,0,0,0-.6,0l-.9.845V7.265l1.2-1.2a.425.425,0,0,0,0-.6.43.43,0,0,0-.6,0l-.6.6V4.7a.4.4,0,0,0-.41-.41.42.42,0,0,0-.41.41V6.061l-.6-.6a.425.425,0,1,0-.6.6l1.2,1.2V9.257l-.9-.874a.4.4,0,0,0-.6.026.585.585,0,0,0-.111.219V9.941L14.929,8.546V6.881a.41.41,0,0,0-.82,0v.848l-.959-.956a.425.425,0,0,0-.6.6l.982.982h-.9a.4.4,0,0,0-.41.41.42.42,0,0,0,.41.41h1.719l1.392,1.392-1.289.057a.467.467,0,0,0-.436.407.028.028,0,0,0-.028.028h.028a.441.441,0,0,0,.137.3l.9.874H13.12L11.929,11.02a.425.425,0,0,0-.6.6l.629.629h-1.42a.4.4,0,0,0-.41.41.42.42,0,0,0,.41.41h1.392l-.6.6a.43.43,0,0,0,0,.6.4.4,0,0,0,.6,0l1.2-1.2H15.1L14.251,14a.43.43,0,0,0,.026.6.392.392,0,0,0,.273.111H15.78l-1.42,1.418H12.635a.4.4,0,0,0-.41.41.42.42,0,0,0,.41.412h.874l-.985.985a.43.43,0,0,0,0,.6.448.448,0,0,0,.3.137.443.443,0,0,0,.3-.137l.956-.956v.845a.41.41,0,1,0,.82,0V16.737l1.42-1.418.054,1.363a.41.41,0,0,0,.655.327l.874-.874v1.995L16.731,19.3a.425.425,0,0,0,0,.6.43.43,0,0,0,.3.137.438.438,0,0,0,.3-.137l.572-.6V20.7a.41.41,0,1,0,.82,0V19.268l.629.626a.43.43,0,0,0,.3.137.438.438,0,0,0,.3-.137.43.43,0,0,0,0-.6l-1.229-1.229V16.083s.773.737.9.848a.515.515,0,0,0,.353.191h0a.41.41,0,0,0,.41-.438l-.026-1.338,1.364,1.366v1.719a.4.4,0,0,0,.41.41.42.42,0,0,0,.41-.41v-.9l1.01,1.01a.4.4,0,0,0,.6,0,.425.425,0,0,0,0-.6l-.977-.992h.845a.4.4,0,0,0,.41-.41.42.42,0,0,0-.41-.41H22.36l-1.449-1.446,1.289-.054h0a.443.443,0,0,0,.384-.438.474.474,0,0,0-.165-.327l-.773-.773h1.967l1.2,1.2a.448.448,0,0,0,.3.137.443.443,0,0,0,.3-.137.425.425,0,0,0,0-.6l-.6-.6H26.18a.4.4,0,0,0,.41-.41C26.7,12.343,26.51,12.152,26.265,12.152ZM21.3,11.3l-.791.848H19.411l.845-.848ZM19.574,9.639l.021,1.124-.82.791V10.376Zm-2.4,0,.791.737v1.16l-.791-.791Zm-1.719,1.722,1.119-.028.82.82H16.243Zm.026,2.428L16.215,13H17.39l-.773.773Zm1.722,1.8-.054-1.175.791-.791V14.8Zm2.4-.028-.82-.773V13.544l.812.827Zm1.693-1.83-1.093.028-.773-.773h1.147Z" transform="translate(15.975 0.71)" fill="#3797f4"/>
</svg>
