<svg id="download_3_" data-name="download (3)" xmlns="http://www.w3.org/2000/svg" width="51" height="49" viewBox="0 0 51 49">
  <path id="Path_26" data-name="Path 26" d="M5.067,1.242V17.577H22.328V1.242Z" transform="translate(7.349 -1.242)" fill="#000025"/>
  <path id="Path_27" data-name="Path 27" d="M0,18.964H21.883V14.351H0Z" transform="translate(0 22.323)" fill="#000025"/>
  <path id="Path_28" data-name="Path 28" d="M8.593,18.964h8.012V14.351H8.593Z" transform="translate(11.041 22.323)" fill="#000025"/>
  <path id="Path_29" data-name="Path 29" d="M0,20.979H7.089V16.665H0Z" transform="translate(0 26.483)" fill="#000025"/>
  <path id="Path_30" data-name="Path 30" d="M6.94,20.979h7.7V16.665H6.94Z" transform="translate(10.544 26.483)" fill="#000025"/>
  <path id="Path_31" data-name="Path 31" d="M19.111,7.852V23.261H1.542V7.852Z" transform="translate(2.772 10.64)" fill="#000025"/>
  <path id="Path_32" data-name="Path 32" d="M26.454,7.852v4.61l-7.089,3.391-4.61,7.408H8.6V7.852Z" transform="translate(12.426 10.64)" fill="#000025"/>
  <path id="Path_33" data-name="Path 33" d="M23.893,8.843A14.01,14.01,0,0,0,10.025,22.711,14.22,14.22,0,0,0,23.893,36.578,14.22,14.22,0,0,0,37.76,22.711,14.01,14.01,0,0,0,23.893,8.843Zm5.24,20.022H22.351v3.077l-7.7-4.622,7.7-4.61v2.772h6.781Zm-3.077-5.548V20.24H19.271V17.163H26.05V13.775l7.7,4.622Z" transform="translate(13.24 12.422)" fill="#3797f4"/>
</svg>
